<?xml version="1.0" encoding="UTF-8" standalone="no"?>
<!DOCTYPE svg PUBLIC "-//W3C//DTD SVG 1.1//EN" "http://www.w3.org/Graphics/SVG/1.1/DTD/svg11.dtd">
<svg version="1.1" xmlns="http://www.w3.org/2000/svg" xmlns:xlink="http://www.w3.org/1999/xlink" preserveAspectRatio="xMidYMid meet" viewBox="0 0 640 640" width="640" height="640"><defs><path d="" id="bnzcJduMM"></path><path d="M324.21 63.14L435.49 125.26L221.05 249.47L221.05 363.14L112.93 300L112.93 187.37L324.21 63.14Z" id="c7LuwzP2fp"></path><path d="M114.19 442.62L330.53 565.23L435.49 498.96L112.93 320L114.19 442.62Z" id="b4wsqJ25Yb"></path><path d="M534.74 284.21L534.74 181.05L450.53 132.63L323.16 210.53L534.74 284.21Z" id="g1G5sGEB6J"></path><path d="M534.74 337.89L534.74 441.05L450.53 489.47L323.16 411.58L534.74 337.89Z" id="a1VBFyFLQm"></path><path d="" id="ccpKfiHSe"></path><path d="M314.31 224.99L526.6 285.74L527.15 334.16L316.3 399.72L241.15 363.73L240 262.68L314.31 224.99Z" id="bIrx00rcb"></path></defs><g><g><g><g><use xlink:href="#bnzcJduMM" opacity="1" fill-opacity="0" stroke="#000000" stroke-width="1" stroke-opacity="1"></use></g></g><g><use xlink:href="#c7LuwzP2fp" opacity="1" fill="#5a5b5c" fill-opacity="1"></use><g><use xlink:href="#c7LuwzP2fp" opacity="1" fill-opacity="0" stroke="#000000" stroke-width="0" stroke-opacity="1"></use></g></g><g><use xlink:href="#b4wsqJ25Yb" opacity="1" fill="#5a5b5c" fill-opacity="1"></use><g><use xlink:href="#b4wsqJ25Yb" opacity="1" fill-opacity="0" stroke="#000000" stroke-width="0" stroke-opacity="1"></use></g></g><g><use xlink:href="#g1G5sGEB6J" opacity="1" fill="#5a5b5c" fill-opacity="1"></use><g><use xlink:href="#g1G5sGEB6J" opacity="1" fill-opacity="0" stroke="#000000" stroke-width="0" stroke-opacity="1"></use></g></g><g><use xlink:href="#a1VBFyFLQm" opacity="1" fill="#5a5b5c" fill-opacity="1"></use><g><use xlink:href="#a1VBFyFLQm" opacity="1" fill-opacity="0" stroke="#000000" stroke-width="0" stroke-opacity="1"></use></g></g><g><g><use xlink:href="#ccpKfiHSe" opacity="1" fill-opacity="0" stroke="#000000" stroke-width="1" stroke-opacity="1"></use></g></g><g><use xlink:href="#bIrx00rcb" opacity="1" fill="#bcbcbc" fill-opacity="1"></use><g><use xlink:href="#bIrx00rcb" opacity="1" fill-opacity="0" stroke="#000000" stroke-width="0" stroke-opacity="1"></use></g></g></g></g></svg>